<?xml version="1.0" encoding="UTF-8"?>
<svg id="Layer_2" data-name="Layer 2" xmlns="http://www.w3.org/2000/svg" viewBox="0 0 50.35 53.43">
  <defs>
    <style>
      .cls-1 {
        fill: #fff;
      }

      .cls-2 {
        fill: #ed2156;
      }

      .cls-3 {
        fill: #63c7cf;
      }
    </style>
  </defs>
  <g id="Layer_1-2" data-name="Layer 1">
    <g>
      <path class="cls-3" d="M36.09,8.54l4.02-6.97c.23-.39,.09-.89-.3-1.11-.39-.23-.89-.1-1.11,.3l-4.08,7.06c-3.11-1.42-6.61-2.21-10.38-2.21s-7.27,.79-10.38,2.21L9.8,.75c-.23-.39-.72-.52-1.11-.3-.39,.23-.52,.72-.3,1.11l4.02,6.97C5.48,12.3,.78,19.32,0,27.55v25.89H48.52V27.55c-.78-8.22-5.48-15.25-12.42-19.01Zm-18.63,29.58h-5.36V19.27H7.47v-4.3h9.99v23.15Zm21.02-5.29c-1,1.85-2.39,3.26-4.15,4.23-1.76,.97-3.81,1.46-6.15,1.46-1.21,0-2.38-.13-3.51-.4-1.12-.26-2.09-.66-2.91-1.19l1.98-3.94c.64,.44,1.32,.74,2.05,.91,.73,.17,1.49,.25,2.28,.25,1.98,0,3.57-.61,4.75-1.82,1.1-1.13,1.69-2.77,1.76-4.91-.1,.1-.21,.2-.32,.3-.68,.58-1.48,1.03-2.38,1.32-.9,.3-1.92,.45-3.04,.45-1.48,0-2.82-.3-4.02-.89-1.2-.6-2.16-1.43-2.88-2.51-.72-1.08-1.07-2.35-1.07-3.8,0-1.59,.39-2.95,1.17-4.1,.78-1.15,1.84-2.03,3.17-2.66,1.33-.63,2.81-.94,4.42-.94,2.14,0,3.98,.44,5.52,1.32,1.54,.88,2.73,2.17,3.57,3.85,.84,1.69,1.26,3.79,1.26,6.3,0,2.67-.5,4.93-1.5,6.78Zm-4.96-12.58c.32,.52,.48,1.11,.48,1.77s-.17,1.26-.5,1.79-.8,.94-1.41,1.24c-.61,.3-1.3,.45-2.07,.45-1.19,0-2.14-.31-2.86-.94-.72-.63-1.07-1.47-1.07-2.53,0-.71,.17-1.32,.5-1.84,.33-.52,.78-.91,1.36-1.19,.57-.28,1.25-.41,2.02-.41,.86,0,1.59,.15,2.18,.45,.6,.3,1.05,.71,1.37,1.22Z"/>
      <path class="cls-2" d="M37.93,8.2l4.02-6.97c.23-.39,.09-.89-.3-1.11-.39-.23-.89-.1-1.11,.3l-4.08,7.06c-3.11-1.42-6.61-2.21-10.38-2.21s-7.27,.79-10.38,2.21L11.64,.41c-.23-.39-.72-.52-1.11-.3-.39,.23-.52,.72-.3,1.11l4.02,6.97C7.31,11.96,2.61,18.98,1.84,27.21v25.89H50.35V27.21c-.78-8.22-5.48-15.25-12.42-19.01Zm-18.63,29.58h-5.36V18.93h-4.63v-4.3h9.99v23.15Zm21.02-5.29c-1,1.85-2.39,3.26-4.15,4.23-1.76,.97-3.81,1.46-6.15,1.46-1.21,0-2.38-.13-3.51-.4-1.12-.26-2.09-.66-2.91-1.19l1.98-3.94c.64,.44,1.32,.74,2.05,.91,.73,.17,1.49,.25,2.28,.25,1.98,0,3.57-.61,4.75-1.82,1.1-1.13,1.69-2.77,1.76-4.91-.1,.1-.21,.2-.32,.3-.68,.58-1.48,1.03-2.38,1.32-.9,.3-1.92,.45-3.04,.45-1.48,0-2.82-.3-4.02-.89-1.2-.6-2.16-1.43-2.88-2.51-.72-1.08-1.07-2.35-1.07-3.8,0-1.59,.39-2.95,1.17-4.1,.78-1.15,1.84-2.03,3.17-2.66,1.33-.63,2.81-.94,4.42-.94,2.14,0,3.98,.44,5.52,1.32,1.54,.88,2.73,2.17,3.57,3.85,.84,1.69,1.26,3.79,1.26,6.3,0,2.67-.5,4.93-1.5,6.78Zm-4.96-12.58c.32,.52,.48,1.11,.48,1.77s-.17,1.26-.5,1.79-.8,.94-1.41,1.24c-.61,.3-1.3,.45-2.07,.45-1.19,0-2.14-.31-2.86-.94-.72-.63-1.07-1.47-1.07-2.53,0-.71,.17-1.32,.5-1.84,.33-.52,.78-.91,1.36-1.19,.57-.28,1.25-.41,2.02-.41,.86,0,1.59,.15,2.18,.45,.6,.3,1.05,.71,1.37,1.22Z"/>
      <g>
        <path class="cls-1" d="M33.5,23.8c.33-.53,.5-1.12,.5-1.79s-.16-1.25-.48-1.77c-.32-.52-.78-.93-1.37-1.22-.59-.29-1.31-.44-2.15-.44-.07,.03-.15,.04-.21,.07-.57,.28-1.03,.67-1.36,1.19-.33,.52-.5,1.13-.5,1.84,0,1.06,.36,1.9,1.07,2.53,.7,.62,1.64,.93,2.8,.94,.1-.04,.2-.06,.29-.1,.61-.3,1.07-.71,1.41-1.24Z"/>
        <path class="cls-1" d="M36.09,8.54l4.02-6.97c.1-.18,.12-.38,.09-.56l-3.73,6.46c-.43-.2-.87-.38-1.32-.55l-.52,.89c-3.11-1.42-6.61-2.21-10.38-2.21-1.3,0-2.57,.1-3.81,.28-1.66,.37-3.24,.91-4.74,1.59l-.19-.33c-.52,.19-1.03,.4-1.53,.62l.25,.44C7.31,11.96,2.61,18.98,1.84,27.21v25.89H48.52V27.55c-.78-8.22-5.48-15.25-12.42-19.01Zm-16.8,29.24h-1.84v.34h-5.36V19.27H7.47v-4.3h1.84v-.34h9.99v23.15Zm21.02-5.29c-1,1.85-2.39,3.26-4.15,4.23-1.33,.73-2.82,1.19-4.48,1.37-1.09,.28-2.25,.43-3.51,.43s-2.38-.13-3.51-.4c-1.12-.26-2.09-.66-2.91-1.19l1.98-3.94c.42,.29,.87,.5,1.33,.67l.51-1.01c.64,.44,1.32,.74,2.05,.91,.73,.17,1.49,.25,2.28,.25,.19,0,.37-.01,.55-.02,.91-.3,1.7-.78,2.36-1.46,.93-.95,1.47-2.29,1.67-3.97-.25,.12-.5,.25-.77,.34-.6,.2-1.27,.31-1.97,.37-.87,.27-1.84,.42-2.91,.42-1.48,0-2.82-.3-4.02-.89-1.2-.6-2.16-1.43-2.88-2.51-.72-1.08-1.07-2.35-1.07-3.8,0-1.59,.39-2.95,1.17-4.1,.78-1.15,1.84-2.03,3.17-2.66,1.04-.49,2.16-.78,3.36-.89,.91-.25,1.87-.39,2.89-.39,2.14,0,3.98,.44,5.52,1.32,1.54,.88,2.73,2.17,3.57,3.85,.84,1.69,1.26,3.79,1.26,6.3,0,2.67-.5,4.93-1.5,6.78Z"/>
      </g>
    </g>
  </g>
</svg>