<?xml version="1.0" encoding="utf-8"?>
<!-- Generator: Adobe Illustrator 27.0.0, SVG Export Plug-In . SVG Version: 6.00 Build 0)  -->
<svg version="1.1" id="Layer_2_00000044177053359772742780000009313447043822146188_"
	 xmlns="http://www.w3.org/2000/svg" xmlns:xlink="http://www.w3.org/1999/xlink" x="0px" y="0px" viewBox="0 0 260.4 260.4"
	 style="enable-background:new 0 0 260.4 260.4;" xml:space="preserve">
<style type="text/css">
	.st0{fill:#161825;}
	.st1{fill:#ED2156;}
	.st2{fill:#63C7CF;}
	.st3{fill:#FFFFFF;}
</style>
<g id="Layer_1-2">
	<g>
		<path class="st0" d="M43.9,0h172.7c24.2,0,43.9,19.6,43.9,43.9v172.7c0,24.2-19.6,43.9-43.9,43.9H43.9C19.6,260.4,0,240.7,0,216.5
			V43.9C0,19.6,19.6,0,43.9,0z"/>
		<g>
			<path class="st1" d="M162.7,92.2c-2.6,0-5.1,0.2-7.6,0.5v30.1c2.3-0.7,5.1-1.1,7.6-1.1c13.3,0,24,10.8,24,24s-10.8,24-24,24
				s-24-10.8-24-24V31.5h-29.5c0,21.7-17.6,39.3-39.3,39.3v28.4c14.9,0,28.6-5.2,39.3-14v60.4c0,18.9,9.8,35.5,24.6,45
				c-1.2,0.3-2.4,0.6-3.6,0.9c-16.2,2.9-28.8,0.8-37.2-6.4c-15.4-13.2-15-39.7-15-39.9l-1.7-0.1H52.5c0,5.6,0.7,39.4,23.8,59.2
				c10.8,9.3,24.4,14,40.6,14c5.7,0,11.8-0.6,18.2-1.8l0.5-0.1c32.8-7.4,55.6-19.5,68.3-36.3c7.8-9.3,12.5-21.3,12.5-34.4
				C216.3,116.2,192.3,92.2,162.7,92.2L162.7,92.2z"/>
			<path class="st2" d="M154.3,102.7c-2.6,0-5.1,0.2-7.6,0.5v30.1c2.3-0.7,5.1-1.1,7.6-1.1c13.3,0,24,10.8,24,24s-10.8,24-24,24
				s-24-10.8-24-24V42h-29.5c0,21.7-17.6,39.3-39.3,39.3v28.4c14.9,0,28.6-5.2,39.3-14v60.4c0,18.9,9.8,35.5,24.6,45
				c-1.2,0.3-2.4,0.6-3.6,0.9c-16.2,2.9-28.8,0.8-37.2-6.4c-15.4-13.2-15-39.7-15-39.9l-1.7-0.1H44.1c0,5.6,0.7,39.4,23.8,59.2
				c10.8,9.3,24.4,14,40.6,14c5.7,0,11.8-0.6,18.2-1.8l0.5-0.1c32.8-7.4,55.6-19.5,68.3-36.3c7.8-9.3,12.5-21.3,12.5-34.4
				C207.9,126.6,183.9,102.6,154.3,102.7L154.3,102.7z"/>
			<path class="st3" d="M155.2,102.7v20.1c2.3-0.7,5.1-1.1,7.6-1.1c13.3,0,24,10.8,24,24c0,8.1-4.1,15.3-10.2,19.7
				c-3.6,8.7-12.2,14.8-22.2,14.8c-13.3,0-24-10.8-24-24V42h-22.5c-2.1,7.5-6.2,14-11.9,19c-5.4,9.8-14.8,17-26,19.4v18.9
				c14.9,0,28.6-5.2,39.3-14v60.4c0,18.9,9.8,35.5,24.6,45c-1.2,0.3-2.4,0.6-3.6,0.9c-5.3,1-10.3,1.4-14.8,1.2c3,3.2,6.4,6,10.1,8.4
				c-1.2,0.3-2.4,0.6-3.6,0.9c-16.2,2.9-28.8,0.8-37.2-6.4c-15.4-13.2-15-39.7-15-39.9l-1.7-0.1H53.1c1.5,13,6.5,34.5,23.1,48.7
				c10.8,9.3,24.4,14,40.6,14c5.7,0,11.8-0.6,18.2-1.8l0.5-0.1c28.9-6.5,50.2-16.8,63.4-30.6c5.7-8.5,9-18.7,9-29.6
				C207.9,126.9,184.3,103.1,155.2,102.7L155.2,102.7z"/>
		</g>
	</g>
</g>
</svg>
